<svg xmlns="http://www.w3.org/2000/svg" width="93" height="93"><g data-name="Group 11"><g data-name="Group 10"><path data-name="Path 7" d="M46.5 0A46.5 46.5 0 1 0 93 46.5 46.5 46.5 0 0 0 46.5 0Zm1.995 88.911v-8.179a2 2 0 1 0-3.99 0v8.179A42.49 42.49 0 0 1 4.089 48.5h8.179a1.995 1.995 0 1 0 0-3.99H4.089A42.49 42.49 0 0 1 44.505 4.089v8.179a1.995 1.995 0 1 0 3.99 0V4.089a42.49 42.49 0 0 1 40.416 40.416h-8.179a2 2 0 1 0 0 3.99h8.2a42.49 42.49 0 0 1-40.437 40.416Z" fill="#e08709"/></g></g><g data-name="Group 13"><g data-name="Group 12"><path data-name="Path 8" d="m67.546 65.052-19.051-19.37V25.554a2 2 0 1 0-3.99 0V46.5a2 2 0 0 0 .578 1.4l19.61 19.945a2 2 0 0 0 2.853-2.793Z" fill="#e08709"/></g></g></svg>